<?xml version="1.0" encoding="iso-8859-1"?>
<!-- Generator: Adobe Illustrator 19.0.0, SVG Export Plug-In . SVG Version: 6.00 Build 0)  -->
<svg version="1.1" id="Capa_1" xmlns="http://www.w3.org/2000/svg" xmlns:xlink="http://www.w3.org/1999/xlink" x="0px" y="0px"
	 viewBox="0 0 511.95 511.95" style="enable-background:new 0 0 511.95 511.95;" xml:space="preserve">
<g>
	<g>
		<path d="M211.98,271.973h-47.995c-2.211,0-4,1.789-4,4V507.95c0,2.211,1.789,4,4,4c2.21,0,3.999-1.789,3.999-4V279.973h39.996
			V507.95c0,2.211,1.789,4,4,4s3.999-1.789,3.999-4V275.973C215.979,273.762,214.191,271.973,211.98,271.973z"/>
	</g>
</g>
<g>
	<g>
		<path d="M323.969,271.973h-47.995c-2.211,0-4,1.789-4,4V507.95c0,2.211,1.789,4,4,4c2.21,0,3.999-1.789,3.999-4V279.973h39.996
			V507.95c0,2.211,1.789,4,4,4c2.21,0,3.999-1.789,3.999-4V275.973C327.968,273.762,326.179,271.973,323.969,271.973z"/>
	</g>
</g>
<g>
	<g>
		<path d="M171.984,199.98c-2.211,0-4,1.79-4,4v55.995c0,2.21,1.789,3.999,4,3.999s3.999-1.789,3.999-3.999V203.98
			C175.983,201.769,174.195,199.98,171.984,199.98z"/>
	</g>
</g>
<g>
	<g>
		<path d="M203.981,199.98h-31.997c-2.211,0-4,1.79-4,4c0,2.211,1.789,4,4,4h31.997c2.21,0,3.999-1.789,3.999-4
			S206.191,199.98,203.981,199.98z"/>
	</g>
</g>
<g>
	<g>
		<path d="M203.981,199.98c-2.211,0-4,1.79-4,4v55.995c0,2.21,1.789,3.999,4,3.999c2.21,0,3.999-1.789,3.999-3.999V203.98
			C207.98,201.769,206.191,199.98,203.981,199.98z"/>
	</g>
</g>
<g>
	<g>
		<path d="M283.973,199.98c-2.211,0-4,1.79-4,4v55.995c0,2.21,1.789,3.999,4,3.999c2.21,0,3.999-1.789,3.999-3.999V203.98
			C287.972,201.769,286.183,199.98,283.973,199.98z"/>
	</g>
</g>
<g>
	<g>
		<path d="M315.97,199.98h-31.997c-2.211,0-4,1.79-4,4c0,2.211,1.789,4,4,4h31.997c2.21,0,3.999-1.789,3.999-4
			S318.18,199.98,315.97,199.98z"/>
	</g>
</g>
<g>
	<g>
		<path d="M315.97,199.98c-2.211,0-4,1.79-4,4v55.995c0,2.21,1.789,3.999,4,3.999c2.21,0,3.999-1.789,3.999-3.999V203.98
			C319.969,201.769,318.18,199.98,315.97,199.98z"/>
	</g>
</g>
<g>
	<g>
		<path d="M179.983,287.972c-2.211,0-4,1.788-4,3.999V507.95c0,2.211,1.789,4,4,4s4-1.789,4-4V291.971
			C183.983,289.76,182.194,287.972,179.983,287.972z"/>
	</g>
</g>
<g>
	<g>
		<path d="M195.981,287.972c-2.21,0-3.999,1.788-3.999,3.999V507.95c0,2.211,1.789,4,3.999,4c2.211,0,4-1.789,4-4V291.971
			C199.981,289.76,198.192,287.972,195.981,287.972z"/>
	</g>
</g>
<g>
	<g>
		<path d="M291.972,287.972c-2.211,0-4,1.788-4,3.999V507.95c0,2.211,1.789,4,4,4s4-1.789,4-4V291.971
			C295.972,289.76,294.183,287.972,291.972,287.972z"/>
	</g>
</g>
<g>
	<g>
		<path d="M307.97,287.972c-2.211,0-3.999,1.788-3.999,3.999V507.95c0,2.211,1.788,4,3.999,4s4-1.789,4-4V291.971
			C311.97,289.76,310.181,287.972,307.97,287.972z"/>
	</g>
</g>
<g>
	<g>
		<path d="M235.977,199.98c-2.21,0-3.999,1.79-3.999,4v303.97c0,2.211,1.789,4,3.999,4c2.211,0,4-1.789,4-4V203.98
			C239.977,201.769,238.188,199.98,235.977,199.98z"/>
	</g>
</g>
<g>
	<g>
		<path d="M251.976,199.98c-2.211,0-4,1.79-4,4v303.97c0,2.211,1.789,4,4,4s3.999-1.789,3.999-4V203.98
			C255.975,201.769,254.187,199.98,251.976,199.98z"/>
	</g>
</g>
<g>
	<g>
		<path d="M187.982,215.978c-2.211,0-3.999,1.79-3.999,4v39.997c0,2.21,1.788,3.999,3.999,3.999s4-1.789,4-3.999v-39.997
			C191.982,217.767,190.193,215.978,187.982,215.978z"/>
	</g>
</g>
<g>
	<g>
		<path d="M299.971,215.978c-2.211,0-3.999,1.79-3.999,4v39.997c0,2.21,1.788,3.999,3.999,3.999s4-1.789,4-3.999v-39.997
			C303.971,217.767,302.182,215.978,299.971,215.978z"/>
	</g>
</g>
<g>
	<g>
		<path d="M267.974,199.98h-47.995c-2.211,0-4,1.79-4,4c0,2.211,1.789,4,4,4h47.995c2.211,0,4-1.789,4-4
			S270.185,199.98,267.974,199.98z"/>
	</g>
</g>
<g>
	<g>
		<path d="M187.982,143.985c-2.211,0-3.999,1.789-3.999,4v39.996c0,2.211,1.788,4,3.999,4s4-1.789,4-4v-39.996
			C191.982,145.774,190.193,143.985,187.982,143.985z"/>
	</g>
</g>
<g>
	<g>
		<path d="M299.971,143.985c-2.211,0-3.999,1.789-3.999,4v39.996c0,2.211,1.788,4,3.999,4s4-1.789,4-4v-39.996
			C303.971,145.774,302.182,143.985,299.971,143.985z"/>
	</g>
</g>
<g>
	<g>
		<path d="M301.76,144.407c-0.687-0.344-17.304-8.421-57.783-8.421c-40.476,0-57.096,8.077-57.784,8.421
			c-1.976,0.988-2.776,3.39-1.788,5.367c0.991,1.977,3.393,2.766,5.366,1.789c0.152-0.078,15.6-7.578,54.206-7.578
			c38.246,0,54.072,7.512,54.205,7.578c0.57,0.285,1.18,0.422,1.789,0.422c1.469,0,2.875-0.808,3.578-2.211
			C304.532,147.798,303.737,145.395,301.76,144.407z"/>
	</g>
</g>
<g>
	<g>
		<path d="M283.973,159.985h-79.992c-2.211,0-4,1.789-4,3.999c0,2.211,1.789,4,4,4h79.992c2.21,0,3.999-1.789,3.999-4
			C287.972,161.774,286.183,159.985,283.973,159.985z"/>
	</g>
</g>
<g>
	<g>
		<path d="M219.979,151.985c-2.211,0-4,1.789-4,4v7.999c0,2.211,1.789,4,4,4s4-1.789,4-4v-7.999
			C223.979,153.774,222.19,151.985,219.979,151.985z"/>
	</g>
</g>
<g>
	<g>
		<path d="M235.977,151.985c-2.21,0-3.999,1.789-3.999,4v7.999c0,2.211,1.789,4,3.999,4c2.211,0,4-1.789,4-4v-7.999
			C239.977,153.774,238.188,151.985,235.977,151.985z"/>
	</g>
</g>
<g>
	<g>
		<path d="M251.976,151.985c-2.211,0-4,1.789-4,4v7.999c0,2.211,1.789,4,4,4s3.999-1.789,3.999-4v-7.999
			C255.975,153.774,254.187,151.985,251.976,151.985z"/>
	</g>
</g>
<g>
	<g>
		<path d="M267.974,151.985c-2.211,0-3.999,1.789-3.999,4v7.999c0,2.211,1.788,4,3.999,4s4-1.789,4-4v-7.999
			C271.974,153.774,270.185,151.985,267.974,151.985z"/>
	</g>
</g>
<g>
	<g>
		<path d="M227.978,175.982c-2.211,0-3.999,1.789-3.999,4v7.999c0,2.211,1.788,4,3.999,4s4-1.789,4-4v-7.999
			C231.978,177.771,230.189,175.982,227.978,175.982z"/>
	</g>
</g>
<g>
	<g>
		<path d="M203.981,175.982c-2.211,0-4,1.789-4,4v7.999c0,2.211,1.789,4,4,4c2.21,0,3.999-1.789,3.999-4v-7.999
			C207.98,177.771,206.191,175.982,203.981,175.982z"/>
	</g>
</g>
<g>
	<g>
		<path d="M259.975,175.982c-2.211,0-4,1.789-4,4v7.999c0,2.211,1.789,4,4,4s4-1.789,4-4v-7.999
			C263.975,177.771,262.186,175.982,259.975,175.982z"/>
	</g>
</g>
<g>
	<g>
		<path d="M283.973,175.982c-2.211,0-4,1.789-4,4v7.999c0,2.211,1.789,4,4,4c2.21,0,3.999-1.789,3.999-4v-7.999
			C287.972,177.771,286.183,175.982,283.973,175.982z"/>
	</g>
</g>
<g>
	<g>
		<path d="M243.977,175.982c-2.211,0-4,1.789-4,4v7.999c0,2.211,1.789,4,4,4c2.21,0,3.999-1.789,3.999-4v-7.999
			C247.976,177.771,246.187,175.982,243.977,175.982z"/>
	</g>
</g>
<g>
	<g>
		<path d="M240.157,47.999c-1.965-0.16-4.074,1.606-4.176,3.816l-3.999,88.101c-0.102,2.207,1.609,4.073,3.815,4.175
			c0.059,0.004,0.122,0.004,0.184,0.004c2.125,0,3.894-1.671,3.992-3.82l4-88.101C244.075,49.968,242.364,48.101,240.157,47.999z"/>
	</g>
</g>
<g>
	<g>
		<path d="M247.976,47.995h-7.999c-2.211,0-4,1.789-4,4s1.789,4,4,4h7.999c2.211,0,4-1.789,4-4S250.187,47.995,247.976,47.995z"/>
	</g>
</g>
<g>
	<g>
		<path d="M251.972,51.816c-0.102-2.207-2.184-4-4.176-3.816c-2.207,0.101-3.917,1.968-3.815,4.175l3.983,88.101
			c0.097,2.144,1.867,3.819,3.992,3.819c0.063,0,0.125,0,0.184-0.003c2.207-0.102,3.917-1.968,3.815-4.175L251.972,51.816z"/>
	</g>
</g>
<g>
	<g>
		<path d="M243.977,0c-2.211,0-4,1.789-4,3.999v47.996c0,2.211,1.789,4,4,4c2.21,0,3.999-1.79,3.999-4V3.999
			C247.976,1.789,246.187,0,243.977,0z"/>
	</g>
</g>
<g>
	<g>
		<path d="M123.989,23.997c-10.8,0-20.595,6.324-25.197,15.999H75.993c-6.616,0-11.998,5.382-11.998,11.999
			c0,1.403,0.243,2.75,0.684,4h-4.684c-6.616,0-11.999,5.382-11.999,11.999c0,6.616,5.383,11.999,11.999,11.999h63.994
			c15.435,0,27.997-12.562,27.997-27.998C151.986,36.559,139.425,23.997,123.989,23.997z M123.989,71.994H59.995
			c-2.207,0-3.999-1.793-3.999-4c0-2.207,1.792-4,3.999-4v0.001h15.998c2.211,0,4-1.789,4-3.999c0-2.211-1.789-4-4-4
			c-2.206,0-3.999-1.793-3.999-4c0-2.207,1.793-4,3.999-4h25.466c1.692,0,3.204-1.066,3.77-2.66
			c2.835-7.979,10.373-13.338,18.76-13.338c11.026,0,19.998,8.972,19.998,19.998S135.015,71.994,123.989,71.994z"/>
	</g>
</g>
<g>
	<g>
		<path d="M435.957,63.993c-10.811,0-20.606,6.324-25.2,15.999h-30.794c-6.616,0-11.999,5.382-11.999,11.999
			c0,1.402,0.243,2.75,0.688,4h-4.688c-6.616,0-11.998,5.382-11.998,11.999c0,6.616,5.382,11.999,11.998,11.999h71.993
			c15.437,0,27.997-12.562,27.997-27.998S451.394,63.993,435.957,63.993z M435.957,111.99h-71.993c-2.202,0-3.999-1.793-3.999-4
			c0-2.207,1.797-4,3.999-4v0.001h15.998c2.211,0,3.999-1.789,3.999-3.999c0-2.211-1.788-4-3.999-4c-2.203,0-3.999-1.793-3.999-4
			c0-2.207,1.796-4,3.999-4h33.466c1.696,0,3.203-1.066,3.765-2.664c2.828-7.975,10.374-13.334,18.764-13.334
			c11.03,0,19.998,8.972,19.998,19.998S446.987,111.99,435.957,111.99z"/>
	</g>
</g>
<g>
</g>
<g>
</g>
<g>
</g>
<g>
</g>
<g>
</g>
<g>
</g>
<g>
</g>
<g>
</g>
<g>
</g>
<g>
</g>
<g>
</g>
<g>
</g>
<g>
</g>
<g>
</g>
<g>
</g>
</svg>
